# xmcd
#
# Track frame offsets: 
#        150
#        19294
#        36668
#        53479
#        69349
#        91383
#        111076
#        131788
#        165248
#        188555
#        216774
#        234352
#        250246
#        266532
#        285406
#
# Disc length: 3980 seconds
#
# Revision: 0
# Processed by: cddbd v1.5.2PL0 Copyright (c) Steve Scherf et al.
# Submitted via: ExactAudioCopy v1.0b1
#
DISCID=cb0f8a0f
DTITLE=Iwan Fals - 15 Lagu Banjo and Harmonika
DYEAR=2010
DGENRE=Folk
TTITLE0=Guru Oemar Bakri
TTITLE1=O.A.M ( Obat Awet Muda )
TTITLE2=Ambulance Zig Zag
TTITLE3=Barang Antik
TTITLE4=Sugali
TTITLE5=Kereta Tiba Pukul Berapa
TTITLE6=Isi Rimba Tak Ada Tempat Berpijak Lagi
TTITLE7=Tarmijah Dan Problemnya
TTITLE8=Ujung Aspal Pondok Gede
TTITLE9=Opiniku
TTITLE10=Galang Rambu Anarki
TTITLE11=Tince Sukarti Binti Machmud
TTITLE12=Berapa
TTITLE13=Cik
TTITLE14=Nenekku Okem
EXTD=
EXTT0=
EXTT1=
EXTT2=
EXTT3=
EXTT4=
EXTT5=
EXTT6=
EXTT7=
EXTT8=
EXTT9=
EXTT10=
EXTT11=
EXTT12=
EXTT13=
EXTT14=
PLAYORDER=
